#!OML:ASF X:\für Bonn\!DataBase\2005_08_10_Bjorn_Final\c3d\bjorn.ASF
:FULLY-SPECIFIED
:DEGREES
147
root 0.857642 19.0946 2.84211 -172.593 0.37194 -179.031
lowerback -0.810156 0.66118 3.47022
upperback 5.60382 1.08336 -0.816349
thorax 6.35785 0.866102 -2.71248
lowerneck -15.6793 -3.07197 1.22958
upperneck 15.7617 -4.80341 0.808889
head 7.41812 -2.20559 -0.465294
rclavicle 1.04113e-014 1.40143e-014
rhumerus 70.6433 -0.676229 -64.9431
rradius 13.9733
rwrist 33.8788
rhand -8.48806 9.91539
rfingers 7.12502
rthumb 17.4392 -19.3223
lclavicle 1.04113e-014 1.40143e-014
lhumerus 75.3454 -7.9228 64.664
lradius 11.0787
lwrist -42.9772
lhand -17.3825 -8.94405
lfingers 7.12502
lthumb 8.86623 20.8497
rfemur -23.0265 -9.9261 18.2754
rtibia 38.7223
rfoot -18.337 11.5669
rtoes -17.2777
lfemur -21.7677 4.1756 -18.8939
ltibia 38.2434
lfoot -17.5773 -6.35451
ltoes -13.7771
148
root 0.862447 19.1549 2.80891 -172.483 0.426629 -178.899
lowerback -1.30191 0.655019 3.50763
upperback 5.49628 1.03263 -0.788639
thorax 6.52407 0.833673 -2.70314
lowerneck -15.2623 -3.00979 1.33849
upperneck 15.8009 -4.74635 0.766777
head 7.35514 -2.18468 -0.48403
rclavicle 8.00108e-015 6.95746e-016
rhumerus 70.6805 -0.537559 -65.6624
rradius 13.7584
rwrist 34.8173
rhand -8.31432 9.90838
rfingers 7.12502
rthumb 17.6064 -19.3144
lclavicle 8.00108e-015 6.95746e-016
lhumerus 75.5432 -7.9986 63.6752
lradius 10.5721
lwrist -42.5717
lhand -17.086 -8.7034
lfingers 7.12502
lthumb 9.15238 21.078
rfemur -22.3122 -10.1517 18.4501
rtibia 37.3591
rfoot -17.7279 11.8075
rtoes -16.6744
lfemur -20.9525 4.40003 -18.7033
ltibia 36.7562
lfoot -17.1962 -6.75276
ltoes -12.7993
149
root 0.866533 19.2051 2.77602 -172.39 0.516006 -178.774
lowerback -1.78707 0.651565 3.52231
upperback 5.39666 0.986931 -0.739653
thorax 6.6946 0.802865 -2.659
lowerneck -14.692 -2.95894 1.41336
upperneck 15.62 -4.6721 0.682565
head 7.19321 -2.16304 -0.50314
rclavicle -9.88954e-015 0
rhumerus 70.7712 -0.468238 -66.7506
rradius 13.5186
rwrist 36.221
rhand -8.14916 9.95206
rfingers 7.12502
rthumb 17.7653 -19.2564
lclavicle -9.88954e-015 0
lhumerus 75.6011 -7.99337 63.0236
lradius 10.2604
lwrist -42.4171
lhand -16.7317 -8.38314
lfingers 7.12502
lthumb 9.49422 21.383
rfemur -21.6707 -10.4404 18.6002
rtibia 36.1577
rfoot -17.177 12.154
rtoes -16.1346
lfemur -20.2179 4.70578 -18.5303
ltibia 35.4513
lfoot -16.8796 -7.15139
ltoes -11.8406
150
root 0.871216 19.2444 2.74525 -172.278 0.579526 -178.624
lowerback -2.26779 0.655162 3.58956
upperback 5.29376 0.949544 -0.709977
thorax 6.86178 0.779856 -2.6646
lowerneck -14.0416 -2.92903 1.5257
upperneck 15.2508 -4.62584 0.627442
head 6.95672 -2.15042 -0.517657
rclavicle 9.64106e-015 -2.88238e-015
rhumerus 70.8781 -0.468426 -67.8978
rradius 13.2706
rwrist 37.7288
rhand -8.01366 9.96375
rfingers 7.12502
rthumb 17.8957 -19.2329
lclavicle 9.64106e-015 -2.88238e-015
lhumerus 75.4879 -7.92398 62.9899
lradius 10.2092
lwrist -42.8855
lhand -16.3001 -8.13343
lfingers 7.12502
lthumb 9.91059 21.6133
rfemur -21.1467 -10.7648 18.7799
rtibia 35.1245
rfoot -16.6298 12.6081
rtoes -15.2053
lfemur -19.6071 5.00423 -18.3227
ltibia 34.3348
lfoot -16.6391 -7.57089
ltoes -11.0314
151
root 0.87557 19.2734 2.71597 -172.185 0.677992 -178.502
lowerback -2.70268 0.663256 3.58175
upperback 5.19154 0.922616 -0.632518
thorax 7.00126 0.756793 -2.57789
lowerneck -13.3439 -2.91663 1.5373
upperneck 14.7738 -4.56842 0.54885
head 6.68016 -2.13948 -0.519879
rclavicle -8.39865e-015 9.14409e-015
rhumerus 70.9772 -0.404469 -68.7663
rradius 13.0875
rwrist 39.1941
rhand -7.90504 9.95005
rfingers 7.12502
rthumb 18.0002 -19.237
lclavicle -8.39865e-015 9.14409e-015
lhumerus 75.1675 -7.71543 63.6706
lradius 10.3655
lwrist -43.9434
lhand -15.889 -7.87856
lfingers 7.12502
lthumb 10.3072 21.8489
rfemur -20.7048 -11.2034 18.9203
rtibia 34.2643
rfoot -16.1073 13.1989
rtoes -14.3491
lfemur -19.0805 5.39799 -18.1547
ltibia 33.4023
lfoot -16.461 -8.06097
ltoes -10.2176
152
root 0.880392 19.2935 2.68736 -172.111 0.781461 -178.364
lowerback -3.11965 0.685876 3.6278
upperback 5.10479 0.916901 -0.591563
thorax 7.1508 0.749782 -2.55797
lowerneck -12.6577 -2.91413 1.61532
upperneck 14.2606 -4.5384 0.483034
head 6.3944 -2.13613 -0.531105
rclavicle -2.48481e-016 5.96354e-016
rhumerus 71.0958 -0.423467 -69.6978
rradius 12.8906
rwrist 40.7236
rhand -7.75366 9.94834
rfingers 7.12502
rthumb 18.1459 -19.2252
lclavicle -2.48481e-016 5.96354e-016
lhumerus 74.879 -7.52672 64.4199
lradius 10.5726
lwrist -45.0533
lhand -15.4542 -7.65841
lfingers 7.12502
lthumb 10.7267 22.0477
rfemur -20.3291 -11.5957 19.0681
rtibia 33.5599
rfoot -15.6295 13.8103
rtoes -13.3756
lfemur -18.6314 5.84961 -17.9666
ltibia 32.6428
lfoot -16.3218 -8.59978
ltoes -9.39269
